<svg width="125" height="38" viewBox="0 0 125 38" fill="none" xmlns="http://www.w3.org/2000/svg">
<g clip-path="url(#clip0_302_21)">
<path d="M24.4961 0H13.7048C6.13627 0 0 6.10357 0 13.6318V24.3656C0 31.8939 6.13627 37.9974 13.7048 37.9974H24.4961C32.0647 37.9974 38.201 31.8939 38.201 24.3656V13.6318C38.2035 6.10357 32.0673 0 24.4961 0Z" fill="#26D07C"/>
<path d="M59.1008 16.5861C57.8772 18.2773 56.2233 19.0998 54.0414 19.0998C52.7173 19.0998 51.5786 18.6642 50.7543 17.8417C49.7573 16.8475 49.2344 15.3229 49.2421 13.4318C49.2524 10.0982 51.3236 7.86123 54.3917 7.86123C56.177 7.86123 57.55 8.41214 58.7144 9.59852L58.7866 9.67283L60.5228 7.07715L60.4687 7.02846C58.8613 5.57047 56.7514 4.80176 54.366 4.80176C49.322 4.80176 45.9318 8.29171 45.9318 13.4831C45.9318 16.1505 46.6557 18.3618 48.0288 19.8839C49.3889 21.3931 51.3545 22.19 53.7116 22.19C56.7128 22.19 59.1781 21.1471 60.6542 19.251L60.6877 19.2074L59.1755 16.4836L59.1008 16.5861Z" fill="white"/>
<path d="M67.3315 9.98047C64.8326 9.98047 63.2355 10.7851 62.5039 11.2642L62.442 11.3052L63.5034 13.4602L63.5832 13.4115C64.4797 12.8555 65.5411 12.5736 66.7364 12.5736C68.3542 12.5736 69.1399 13.4089 69.1399 15.1283V15.5511C68.2486 15.0155 67.1176 14.7234 65.9326 14.7234C64.8533 14.7234 63.8692 15.0488 63.1582 15.6382C62.3467 16.3121 61.9165 17.3089 61.9165 18.5209C61.9165 20.8167 63.3102 22.1876 65.6467 22.1876C67.0326 22.1876 68.2923 21.6649 69.1373 20.7476V21.8212H72.0818V14.8772C72.0869 11.582 70.531 9.98047 67.3315 9.98047ZM66.6076 20.089C65.5153 20.089 64.7811 19.4331 64.7811 18.4594C64.7811 17.2064 65.7678 16.7605 66.69 16.7605C67.8364 16.7605 68.6504 17.1833 69.1425 17.5472V18.5388C68.671 19.5227 67.7488 20.089 66.6076 20.089Z" fill="white"/>
<path d="M78.419 14.8613C77.0872 14.5513 76.4921 14.1131 76.4921 13.4417C76.4921 12.7371 77.0614 12.3809 78.1872 12.3809C79.3928 12.3809 80.4979 12.773 81.1291 13.1394L81.2089 13.1855L82.2265 10.9434L82.1569 10.905C81.0492 10.3028 79.5911 9.96973 78.0506 9.96973C75.3045 9.96973 73.6661 11.274 73.6661 13.4546C73.6661 15.4993 74.8408 16.6293 77.5895 17.2289C78.5401 17.4647 79.4391 17.6876 79.4391 18.5742C79.4391 19.348 78.7024 19.8118 77.471 19.8118C75.9331 19.8118 75.1139 19.4018 74.408 18.9816L74.3179 18.9278L73.5115 21.2237L73.5682 21.2595C74.5291 21.8489 75.9717 22.1846 77.5277 22.1846C80.5649 22.1846 82.3063 20.8368 82.3063 18.4871C82.3166 15.9785 80.2326 15.2328 78.419 14.8613Z" fill="white"/>
<path d="M90.5627 9.96727C89.0171 9.96727 87.8037 10.6207 87.0335 11.8634V3.96875H84.004V21.8157H87.0335V14.4924C87.5693 13.2907 88.3756 12.6808 89.4241 12.6808C90.6632 12.6808 91.3458 13.511 91.3458 15.0177V21.8182H94.3753V14.2208C94.3753 11.5175 92.9868 9.96727 90.5627 9.96727Z" fill="white"/>
<path d="M104.535 4.78613C99.5482 4.78613 96.1967 8.2479 96.1967 13.3983C96.1967 18.7357 99.4709 22.1846 104.535 22.1846C106.996 22.1846 109.077 21.3877 110.553 19.8811C112.073 18.3308 112.874 16.0888 112.874 13.3983C112.877 8.2479 109.525 4.78613 104.535 4.78613ZM104.535 19.1354C101.485 19.1354 99.5147 16.8831 99.5147 13.3983C99.5147 10.0134 101.485 7.82511 104.535 7.82511C107.586 7.82511 109.556 10.0134 109.556 13.3983C109.556 16.8831 107.586 19.1354 104.535 19.1354Z" fill="#26D07C"/>
<path d="M121.211 9.98047C119.278 9.98303 118.204 10.967 117.622 11.8946V10.3495H114.593V21.8186H117.622V14.5005C118.158 13.3269 119 12.7043 120.062 12.7043C120.775 12.7043 121.971 13.0066 121.971 15.0412V21.8161H125V14.2212C125 11.5256 123.619 9.98047 121.211 9.98047Z" fill="#26D07C"/>
<path d="M47.359 34.0207H48.222V31.2687H50.6358V30.5205H48.222V28.7755H51.2644V27.9863H47.359V34.0207Z" fill="white"/>
<path d="M53.8044 29.7207C53.2969 29.7207 52.859 30.0179 52.5936 30.5227V29.836H51.7615V34.0204H52.5936L52.591 31.7834C52.7688 30.8815 53.3098 30.41 54.0337 30.5202L54.1315 30.5355L54.1341 29.7745L54.0723 29.7591C53.9899 29.7335 53.8894 29.7207 53.8044 29.7207Z" fill="white"/>
<path d="M56.4733 29.71C55.2136 29.71 54.3686 30.6017 54.3686 31.9264C54.3686 33.2742 55.1955 34.1454 56.4733 34.1454C57.751 34.1454 58.5779 33.2742 58.5779 31.9264C58.5779 30.6017 57.7304 29.71 56.4733 29.71ZM56.4733 33.3639C55.8602 33.3639 55.2032 32.9872 55.2032 31.9264C55.2032 30.8682 55.8602 30.4864 56.4733 30.4812C56.4758 30.4812 56.481 30.4812 56.4836 30.4812C56.8133 30.4812 57.1173 30.6017 57.3388 30.8195C57.6016 31.0783 57.7407 31.4626 57.7407 31.9264C57.7433 32.9181 57.1044 33.3639 56.4733 33.3639Z" fill="white"/>
<path d="M63.9465 29.71C63.3617 29.71 62.8697 30.0123 62.5941 30.5299C62.3854 29.9995 61.9423 29.71 61.3266 29.71C60.8191 29.71 60.3966 29.9175 60.1133 30.3044V29.8355H59.2812V34.0199H60.1133V31.2397C60.3425 30.7272 60.662 30.4761 61.0922 30.4761C61.391 30.4761 61.8934 30.6042 61.8934 31.4652V34.0173H62.7254V31.3012C62.8388 30.986 63.117 30.4735 63.7224 30.4735C64.2196 30.4735 64.4952 30.8246 64.4952 31.4626V34.0147H65.3273V31.3114C65.3273 30.2967 64.825 29.71 63.9465 29.71Z" fill="white"/>
<path d="M69.5933 29.71C68.9828 29.71 68.3877 29.874 67.96 30.1584L67.8982 30.1994L68.2202 30.822L68.2975 30.7708C68.6298 30.5581 69.0266 30.4505 69.4774 30.4505C70.1162 30.4505 70.4408 30.799 70.4408 31.4857V31.747C70.0931 31.5318 69.6551 31.4114 69.212 31.4114C68.5242 31.4114 67.7179 31.7752 67.7179 32.7976C67.7179 33.7893 68.4469 34.1429 69.1296 34.1429C69.6474 34.1429 70.1137 33.9481 70.4408 33.6048V34.0173H71.2549V31.4319C71.2575 30.307 70.683 29.71 69.5933 29.71ZM69.3177 33.4971C68.9235 33.4971 68.5242 33.2793 68.5242 32.7899C68.5242 32.2416 68.957 32.0468 69.3614 32.0468C69.7633 32.0468 70.1549 32.1852 70.4434 32.4261V32.7925C70.3378 33.0154 70.0312 33.4971 69.3177 33.4971Z" fill="white"/>
<path d="M72.7207 27.9551C72.4167 27.9551 72.1797 28.1934 72.1797 28.4957C72.1797 28.7981 72.4167 29.0338 72.7207 29.0338C73.0195 29.0338 73.2565 28.7981 73.2565 28.4957C73.2539 28.1985 73.0143 27.9551 72.7207 27.9551Z" fill="white"/>
<path d="M73.1354 29.8359H72.3033V34.0203H73.1354V29.8359Z" fill="white"/>
<path d="M76.2474 29.7207C75.7399 29.7207 75.3019 30.0179 75.0366 30.5227V29.836H74.2045V34.0204H75.0366L75.034 31.7834C75.2118 30.8815 75.7502 30.41 76.4766 30.5202L76.5745 30.5355L76.5771 29.7745L76.5153 29.7591C76.4354 29.7335 76.335 29.7207 76.2474 29.7207Z" fill="white"/>
<path d="M81.111 33.1439C80.8947 33.3079 80.6551 33.3899 80.4 33.3899C80.1708 33.3899 79.8642 33.3079 79.8642 32.5955V30.52H81.1651V29.8384H79.8642V28.5547H79.0321V29.8384H78.4654V30.52H79.0321V32.6622C79.0321 33.8921 79.6916 34.1483 80.2455 34.1483C80.6834 34.1483 81.0698 34.033 81.4202 33.7947L81.4769 33.7563L81.1986 33.0773L81.111 33.1439Z" fill="white"/>
<path d="M83.5532 29.71C82.2934 29.71 81.4485 30.6017 81.4485 31.9264C81.4485 33.2742 82.2754 34.1454 83.5532 34.1454C84.8309 34.1454 85.6578 33.2742 85.6578 31.9264C85.6578 30.6017 84.8129 29.71 83.5532 29.71ZM83.5532 33.3639C82.94 33.3639 82.2831 32.9872 82.2831 31.9264C82.2831 30.8682 82.94 30.4864 83.5532 30.4812C83.5557 30.4812 83.5609 30.4812 83.5635 30.4812C83.8932 30.4812 84.1972 30.6017 84.4187 30.8195C84.6815 31.0783 84.8206 31.4626 84.8206 31.9264C84.8232 32.9181 84.1869 33.3639 83.5532 33.3639Z" fill="white"/>
<path d="M90.8513 29.8359L89.656 32.9415L88.4684 29.8359H87.5797L89.2361 33.9101L88.3035 36.0933H89.182L91.7426 29.8359H90.8513Z" fill="white"/>
<path d="M93.8473 29.71C92.5876 29.71 91.7426 30.6017 91.7426 31.9264C91.7426 33.2742 92.5695 34.1454 93.8473 34.1454C95.125 34.1454 95.952 33.2742 95.952 31.9264C95.9494 30.6017 95.1044 29.71 93.8473 29.71ZM93.8473 33.3639C93.2342 33.3639 92.5773 32.9872 92.5773 31.9264C92.5773 30.8682 93.2342 30.4864 93.8473 30.4812C93.8499 30.4812 93.855 30.4812 93.8576 30.4812C94.1873 30.4812 94.4913 30.6017 94.7129 30.8195C94.9756 31.0783 95.1147 31.4626 95.1147 31.9264C95.1147 32.9181 94.4784 33.3639 93.8473 33.3639Z" fill="white"/>
<path d="M99.3369 32.6084C99.1669 32.9646 98.8475 33.3797 98.2704 33.3797C97.9665 33.3797 97.459 33.249 97.459 32.3778V29.8359H96.6269V32.5392C96.6269 33.5591 97.1421 34.1458 98.0437 34.1458C98.5796 34.1458 99.0304 33.9255 99.3369 33.5232V34.0203H100.169V29.8359H99.3369V32.6084Z" fill="white"/>
<path d="M103.072 29.7207C102.565 29.7207 102.127 30.0179 101.862 30.5227V29.836H101.029V34.0204H101.862L101.859 31.7834C102.037 30.8815 102.575 30.41 103.302 30.5202L103.399 30.5355L103.402 29.7745L103.34 29.7591C103.26 29.7335 103.16 29.7207 103.072 29.7207Z" fill="white"/>
<path d="M107.771 29.7078C107.235 29.7078 106.784 29.9282 106.478 30.3305V27.5605H105.646V34.0177H106.478V31.2452C106.648 30.8865 106.97 30.4688 107.552 30.4688C107.864 30.4688 108.387 30.5995 108.387 31.4707V34.0152H109.219V31.3119C109.216 30.31 108.675 29.7078 107.771 29.7078Z" fill="white"/>
<path d="M111.707 29.71C111.097 29.71 110.502 29.874 110.074 30.1584L110.012 30.1994L110.334 30.822L110.412 30.7708C110.744 30.5581 111.141 30.4505 111.591 30.4505C112.23 30.4505 112.555 30.799 112.555 31.4857V31.747C112.207 31.5318 111.769 31.4114 111.326 31.4114C110.638 31.4114 109.832 31.7752 109.832 32.7976C109.832 33.7893 110.561 34.1429 111.244 34.1429C111.761 34.1429 112.228 33.9481 112.555 33.6048V34.0173H113.369V31.4319C113.372 30.307 112.797 29.71 111.707 29.71ZM111.432 33.4971C111.038 33.4971 110.638 33.2793 110.638 32.7899C110.638 32.2416 111.071 32.0468 111.476 32.0468C111.877 32.0468 112.269 32.1852 112.557 32.4261V32.7925C112.452 33.0154 112.145 33.4971 111.432 33.4971Z" fill="white"/>
<path d="M116.36 29.71C115.811 29.71 115.353 29.9329 115.038 30.3403V29.8355H114.206V34.0199H115.038V31.2499C115.278 30.7503 115.667 30.4761 116.136 30.4761C116.445 30.4761 116.965 30.6068 116.965 31.478V34.0199H117.797V31.3166C117.797 30.3096 117.261 29.71 116.36 29.71Z" fill="white"/>
<path d="M121.829 30.3103C121.502 29.9234 121.03 29.7107 120.476 29.7107C119.598 29.7107 118.573 30.2924 118.573 31.9298C118.573 33.5646 119.513 34.1462 120.391 34.1462C120.968 34.1462 121.471 33.913 121.829 33.48V34.0207H122.661V27.5635H121.829V30.3103ZM121.829 31.2943V32.4679C121.579 33.0572 121.126 33.3801 120.551 33.3801C119.835 33.3801 119.407 32.8368 119.407 31.9272C119.407 30.851 120.062 30.4692 120.621 30.4692C121.185 30.4666 121.615 30.7588 121.829 31.2943Z" fill="white"/>
<path d="M124.134 32.9004C123.782 32.9004 123.503 33.1746 123.503 33.5282C123.503 33.8818 123.774 34.1457 124.134 34.1457C124.482 34.1457 124.755 33.8741 124.755 33.5282C124.758 33.1771 124.485 32.9004 124.134 32.9004Z" fill="white"/>
<path d="M19.1018 30.743C12.6976 30.743 7.48615 25.5593 7.48615 19.1892C7.48615 15.1253 9.57278 11.4329 13.066 9.31641L14.2072 11.1793C11.3709 12.8986 9.6784 15.8915 9.6784 19.1892C9.6784 24.3575 13.9058 28.5624 19.1018 28.5624C24.2978 28.5624 28.5251 24.3575 28.5251 19.1892C28.5251 15.9376 26.8661 12.9627 24.0865 11.2356L25.2483 9.38559C28.672 11.5149 30.7174 15.1791 30.7174 19.1892C30.7174 25.5593 25.506 30.743 19.1018 30.743Z" fill="white"/>
<path d="M21.1343 17.9055L17.162 17.6365C16.2706 17.575 15.8378 17.452 15.8353 16.9293C15.8327 16.3476 16.2861 16.1862 17.0615 16.1862L23.9526 16.1964V14.1824H20.2327V8.58105H18.0404V14.1824H17.198C14.5215 14.1824 13.7795 15.2714 13.7795 16.8626C13.7795 18.4462 14.4416 19.2303 17.1774 19.4199L21.1498 19.6941C21.9973 19.753 22.4378 19.8581 22.4378 20.3962C22.4378 20.9548 22.0823 21.1418 21.2476 21.1418H13.9161V23.1558H18.0404V25.2416H20.2327V23.1558H21.1111C23.7877 23.1558 24.491 22.0617 24.491 20.4756C24.4935 18.8767 23.8109 18.0875 21.1343 17.9055Z" fill="white"/>
</g>
<defs>
<clipPath id="clip0_302_21">
<rect width="125" height="38" fill="white"/>
</clipPath>
</defs>
</svg>
